<svg xmlns="http://www.w3.org/2000/svg" width="22" height="16" viewBox="0 0 22 16" fill="none">
  <path d="M21.3784 12.4308L20.1976 4.1325C19.8942 1.99833 18.0634 0.416666 15.9076 0.416666H6.09255C3.93672 0.416666 2.10588 1.99833 1.80255 4.1325L0.621717 12.4308C0.383384 14.0992 1.67255 15.5833 3.35172 15.5833C4.08838 15.5833 4.78172 15.2908 5.30172 14.7708L7.75005 12.3333H14.2501L16.6876 14.7708C17.2076 15.2908 17.9117 15.5833 18.6375 15.5833C20.3275 15.5833 21.6167 14.0992 21.3784 12.4308ZM9.91672 6.91667H7.75005V9.08333H6.66672V6.91667H4.50005V5.83333H6.66672V3.66667H7.75005V5.83333H9.91672V6.91667ZM14.2501 5.83333C13.6542 5.83333 13.1667 5.34583 13.1667 4.75C13.1667 4.15417 13.6542 3.66667 14.2501 3.66667C14.8459 3.66667 15.3334 4.15417 15.3334 4.75C15.3334 5.34583 14.8459 5.83333 14.2501 5.83333ZM16.4167 9.08333C15.8209 9.08333 15.3334 8.59583 15.3334 8C15.3334 7.40417 15.8209 6.91667 16.4167 6.91667C17.0126 6.91667 17.5001 7.40417 17.5001 8C17.5001 8.59583 17.0126 9.08333 16.4167 9.08333Z" fill="#f3f3f3"/>
</svg>