
<svg xmlns="http://www.w3.org/2000/svg" version="1.1" viewBox="0 0 640 512">
  <path fill="currentColor" class="cls-1" d="M38.8,5.1C28.4-3.1,13.3-1.2,5.1,9.2-3.1,19.6-1.2,34.7,9.2,42.9l592,464c10.4,8.2,25.5,6.3,33.7-4.1s6.3-25.5-4.1-33.7l-105.2-82.4c39.6-40.6,66.4-86.1,79.9-118.4,3.3-7.9,3.3-16.7,0-24.6-14.9-35.7-46.2-87.7-93-131.1-47-43.8-111.7-80.6-192.5-80.6s-125,26.3-169.3,60.8L38.8,5.1ZM223.1,149.5c25.5-23.3,59.6-37.5,96.9-37.5,79.5,0,144,64.5,144,144s-6.3,48.3-17.4,68.7l-38.6-30.2c8.4-19.3,10.6-41.4,4.8-63.3-11.1-41.5-47.8-69.4-88.6-71.1-5.8-.2-9.2,6.1-7.4,11.7,2.1,6.4,3.3,13.2,3.3,20.3,0,10.2-2.4,19.8-6.6,28.3l-90.3-70.8h0ZM373,389.9c-16.4,6.5-34.3,10.1-53,10.1-79.5,0-144-64.5-144-144s.5-13.6,1.4-20.2l-94.3-74.3c-22.8,29.7-39.1,59.3-48.6,82.2-3.3,7.9-3.3,16.7,0,24.6,14.9,35.7,46.2,87.7,93,131.1,47,43.8,111.7,80.6,192.5,80.6s89.9-12.9,126.2-32.5l-73.2-57.6Z"/>
</svg>